<svg width="1043" height="175" viewBox="0 0 1043 175" fill="none" xmlns="http://www.w3.org/2000/svg">
<path d="M157.505 58.0372C158.983 65.0599 159.156 72.2946 158.016 79.38C155.551 118.864 131.46 144.057 98.3024 160.019C69.1273 174.07 38.8438 170.271 11.2225 152.26C8.76988 150.984 6.55052 149.303 4.65823 147.287C3.1051 146.059 2.06079 144.301 1.72616 142.351C-4.43702 127.578 7.33499 126.688 14.5703 129.62C34.2634 137.604 48.0193 127.906 62.2201 117.472L65.6701 112.871C73.4017 91.7248 81.3445 70.6445 88.7403 49.3747C89.6601 45.7674 91.7176 42.5521 94.6074 40.2042C97.4972 37.8562 101.066 36.5004 104.786 36.3372H105.793C125.858 27.0622 137.98 32.5893 151.145 47.2747C154.097 50.3006 156.279 53.9919 157.505 58.0372Z" fill="#DA161F"/>
<path d="M102.75 47.6686C102.269 47.3328 101.883 46.8794 101.627 46.3515C101.372 45.8237 101.256 45.2393 101.292 44.6539C101.327 44.0686 101.512 43.5022 101.828 43.0087C102.145 42.5152 102.583 42.1112 103.101 41.8353C111.087 40.0536 118.802 37.2243 126.047 33.4207C132.341 29.104 139.577 25.3269 140.204 15.3447C140.503 10.4811 129.051 0.455066 126.403 10.3207C124.755 16.4311 122.297 16.4749 119.54 13.5436C118.661 12.4842 118.208 11.1353 118.27 9.76004C118.332 8.38483 118.905 7.08205 119.876 6.10611C121.868 4.0533 124.274 2.44898 126.936 1.40029C129.597 0.351601 132.452 -0.117315 135.31 0.0248572C141.619 0.418607 149.168 6.58736 147.461 20.7332C146.455 26.1639 145.862 31.663 145.689 37.1832C145.336 45.2927 147.285 53.3365 151.312 60.3853C151.333 60.7755 151.258 61.1648 151.094 61.5195C150.93 61.8743 150.682 62.1839 150.372 62.4216C150.062 62.6591 149.698 62.8177 149.313 62.8834C148.928 62.9492 148.533 62.9202 148.161 62.7988C146.28 60.3926 146.229 56.9655 140.671 54.9822C135.106 53.9866 129.371 54.7832 124.288 57.2572C121.692 48.9301 119.089 46.4363 110.672 47.778C108.042 48.1661 105.368 48.1292 102.75 47.6686Z" fill="#86BB2F"/>
<path d="M266.812 126.205C262.887 127.783 259.075 128.956 255.376 129.722C251.722 130.489 247.91 130.872 243.94 130.872C237.579 130.872 231.941 129.948 227.024 128.099C222.152 126.205 218.024 123.408 214.641 119.711C211.302 116.012 208.754 111.436 206.995 105.978C205.281 100.476 204.423 94.0952 204.423 86.8342C204.423 79.393 205.37 72.786 207.265 67.0134C209.16 61.1958 211.867 56.3026 215.385 52.334C218.904 48.3202 223.167 45.2761 228.174 43.2016C233.226 41.0819 238.888 40.0222 245.158 40.0222C247.188 40.0222 249.083 40.0672 250.842 40.1574C252.647 40.2476 254.406 40.428 256.12 40.6986C257.835 40.9242 259.571 41.2398 261.331 41.6457C263.09 42.0516 264.917 42.5702 266.812 43.2016V59.7076C262.977 57.9036 259.323 56.6183 255.849 55.8517C252.376 55.0849 249.218 54.7016 246.376 54.7016C242.181 54.7016 238.595 55.4683 235.617 57.0016C232.64 58.4899 230.181 60.6095 228.242 63.3605C226.347 66.0664 224.949 69.3135 224.047 73.1018C223.144 76.8446 222.693 80.9717 222.693 85.4808C222.693 90.2612 223.144 94.5458 224.047 98.3339C224.994 102.077 226.437 105.257 228.377 107.872C230.317 110.488 232.798 112.495 235.82 113.893C238.843 115.246 242.429 115.922 246.579 115.922C248.068 115.922 249.669 115.787 251.383 115.517C253.143 115.201 254.902 114.817 256.662 114.367C258.466 113.87 260.226 113.307 261.94 112.675C263.699 111.999 265.323 111.323 266.812 110.646V126.205ZM346.387 94.7485C346.387 100.16 345.62 105.122 344.086 109.632C342.553 114.096 340.342 117.929 337.455 121.131C334.568 124.333 331.027 126.814 326.832 128.572C322.636 130.331 317.855 131.211 312.486 131.211C307.389 131.211 302.832 130.467 298.817 128.979C294.803 127.49 291.397 125.28 288.6 122.349C285.803 119.373 283.66 115.674 282.172 111.255C280.683 106.79 279.939 101.603 279.939 95.6957C279.939 90.2394 280.706 85.2781 282.239 80.8134C283.818 76.3488 286.051 72.538 288.938 69.3811C291.871 66.2242 295.434 63.7889 299.63 62.0752C303.825 60.3163 308.562 59.437 313.839 59.437C318.982 59.437 323.561 60.2036 327.576 61.737C331.591 63.2252 334.996 65.4576 337.793 68.434C340.591 71.4105 342.71 75.1084 344.154 79.5279C345.643 83.9029 346.387 88.9765 346.387 94.7485ZM329.2 95.1547C329.2 88.0293 327.846 82.6852 325.14 79.1225C322.478 75.5146 318.531 73.7106 313.298 73.7106C310.411 73.7106 307.953 74.2743 305.923 75.4016C303.892 76.5289 302.223 78.0849 300.915 80.0697C299.607 82.0085 298.637 84.2857 298.005 86.902C297.419 89.5175 297.126 92.3139 297.126 95.2903C297.126 102.461 298.569 107.872 301.457 111.525C304.344 115.133 308.291 116.937 313.298 116.937C316.05 116.937 318.441 116.396 320.471 115.314C322.501 114.186 324.148 112.653 325.41 110.714C326.673 108.73 327.621 106.406 328.252 103.746C328.884 101.085 329.2 98.2216 329.2 95.1547ZM401.129 42.1193C401.129 43.6075 400.858 45.0055 400.317 46.3134C399.775 47.6212 399.009 48.7712 398.016 49.7634C397.069 50.7104 395.941 51.4771 394.633 52.0634C393.325 52.6046 391.904 52.8751 390.37 52.8751C388.836 52.8751 387.393 52.6046 386.039 52.0634C384.731 51.4771 383.581 50.7104 382.588 49.7634C381.641 48.7712 380.897 47.6212 380.355 46.3134C379.814 45.0055 379.543 43.6075 379.543 42.1193C379.543 40.631 379.814 39.2329 380.355 37.9251C380.897 36.6173 381.641 35.4673 382.588 34.4751C383.581 33.4829 384.731 32.7163 386.039 32.1751C387.393 31.5888 388.836 31.2957 390.37 31.2957C391.904 31.2957 393.325 31.5888 394.633 32.1751C395.941 32.7163 397.069 33.4829 398.016 34.4751C399.009 35.4673 399.775 36.6173 400.317 37.9251C400.858 39.2329 401.129 40.631 401.129 42.1193ZM382.859 73.7784H363.439V60.9252H399.775V116.802H419.602V129.654H361.07V116.802H382.859V73.7784ZM477.862 129.654V84.872C477.862 77.3411 475.065 73.575 469.472 73.575C466.675 73.575 463.991 74.703 461.419 76.9576C458.893 79.2122 456.209 82.2791 453.367 86.1575V129.654H436.857V60.9252H451.134L451.54 71.0723C452.938 69.3135 454.383 67.7125 455.871 66.2693C457.404 64.8262 459.051 63.6085 460.81 62.6164C462.57 61.5791 464.465 60.7899 466.494 60.2488C468.524 59.7076 470.803 59.437 473.329 59.437C476.847 59.437 479.915 60.0232 482.531 61.1958C485.148 62.3232 487.336 63.9468 489.095 66.0664C490.854 68.1409 492.163 70.6664 493.02 73.6428C493.922 76.5741 494.373 79.8662 494.373 83.5194V129.654H477.862ZM574.152 69.3811C574.152 73.9811 573.384 78.2431 571.851 82.1668C570.317 86.0452 568.039 89.4045 565.016 92.246C561.994 95.0869 558.227 97.297 553.716 98.8756C549.205 100.454 543.973 101.243 538.017 101.243H529.56V129.654H512.778V41.2398H538.694C544.423 41.2398 549.476 41.8712 553.851 43.134C558.273 44.3516 561.971 46.1556 564.949 48.5457C567.971 50.9359 570.25 53.8898 571.783 57.4076C573.362 60.8801 574.152 64.8713 574.152 69.3811ZM556.694 70.5311C556.694 68.186 556.31 66.0664 555.543 64.1723C554.821 62.233 553.694 60.5869 552.16 59.234C550.671 57.8811 548.776 56.8438 546.476 56.1223C544.175 55.4007 541.446 55.0399 538.289 55.0399H529.56V87.443H538.83C541.717 87.443 544.266 87.0595 546.476 86.2931C548.687 85.4808 550.536 84.3309 552.025 82.8427C553.558 81.3545 554.709 79.5731 555.476 77.4986C556.287 75.4242 556.694 73.1018 556.694 70.5311ZM632.345 129.654L631.938 120.658C630.495 122.191 628.984 123.612 627.405 124.919C625.825 126.182 624.089 127.287 622.195 128.234C620.3 129.181 618.225 129.903 615.969 130.399C613.759 130.94 611.323 131.211 608.661 131.211C605.143 131.211 602.052 130.692 599.391 129.654C596.729 128.618 594.496 127.175 592.692 125.325C590.887 123.476 589.512 121.244 588.564 118.628C587.662 116.012 587.211 113.126 587.211 109.969C587.211 106.722 587.888 103.723 589.241 100.973C590.639 98.2216 592.737 95.854 595.534 93.8692C598.376 91.8851 601.895 90.3291 606.09 89.2018C610.33 88.0745 615.293 87.5108 620.977 87.5108H629.976V83.3838C629.976 81.625 629.728 80.0471 629.232 78.6485C628.736 77.2055 627.923 75.9878 626.796 74.9961C625.713 74.0038 624.292 73.2367 622.533 72.6958C620.773 72.1547 618.608 71.8841 616.037 71.8841C611.977 71.8841 607.962 72.3576 603.992 73.3045C600.068 74.2065 596.255 75.492 592.557 77.1603V63.9693C595.85 62.6615 599.639 61.5791 603.925 60.7223C608.255 59.8654 612.744 59.437 617.39 59.437C622.488 59.437 626.863 59.933 630.518 60.9252C634.172 61.8722 637.171 63.3154 639.517 65.2546C641.908 67.1938 643.667 69.6291 644.795 72.5605C645.923 75.4468 646.486 78.8294 646.486 82.7078V129.654H632.345ZM629.976 99.281H619.893C617.097 99.281 614.729 99.5516 612.789 100.093C610.849 100.634 609.27 101.378 608.052 102.325C606.834 103.273 605.932 104.377 605.345 105.64C604.804 106.858 604.534 108.165 604.534 109.564C604.534 112.359 605.436 114.502 607.24 115.99C609.045 117.433 611.503 118.155 614.616 118.155C616.916 118.155 619.307 117.321 621.788 115.652C624.27 113.983 626.999 111.593 629.976 108.481V99.281ZM727.28 94.0726C727.28 100.386 726.378 105.843 724.574 110.443C722.814 115.043 720.333 118.877 717.13 121.943C713.972 124.964 710.228 127.22 705.897 128.708C701.567 130.151 696.853 130.872 691.755 130.872C690.041 130.872 688.327 130.76 686.613 130.535C684.899 130.309 683.342 130.015 681.944 129.654V156.511H665.433V60.9252H679.711L680.117 71.0723C681.515 69.3135 682.959 67.7125 684.447 66.2693C685.981 64.8262 687.628 63.6085 689.387 62.6164C691.146 61.5791 693.041 60.7899 695.071 60.2488C697.101 59.7076 699.379 59.437 701.905 59.437C705.965 59.437 709.574 60.2487 712.732 61.8722C715.89 63.4958 718.529 65.8183 720.649 68.8399C722.814 71.8164 724.461 75.4468 725.588 79.7314C726.716 83.9707 727.28 88.7504 727.28 94.0726ZM709.958 94.7485C709.958 90.9605 709.687 87.7361 709.146 85.0754C708.604 82.4147 707.815 80.2272 706.777 78.5136C705.785 76.8001 704.544 75.5598 703.056 74.7927C701.612 73.9812 699.943 73.575 698.048 73.575C695.251 73.575 692.567 74.703 689.996 76.9576C687.47 79.2122 684.786 82.2791 681.944 86.1575V116.193C683.252 116.689 684.853 117.095 686.748 117.411C688.688 117.726 690.65 117.884 692.635 117.884C695.251 117.884 697.62 117.343 699.74 116.26C701.905 115.178 703.733 113.645 705.221 111.661C706.755 109.676 707.928 107.263 708.74 104.422C709.551 101.536 709.958 98.3113 709.958 94.7485ZM785.882 87.6457C785.97 85.0754 785.831 82.8879 785.474 81.084C785.16 79.28 784.613 77.7918 783.847 76.6193C783.125 75.4468 782.228 74.59 781.141 74.049C780.062 73.5079 778.822 73.2367 777.422 73.2367C774.985 73.2367 772.462 74.2517 769.843 76.2809C767.269 78.2657 764.431 81.5579 761.317 86.1575V129.654H744.403V60.9252H759.355L759.96 70.937C761.091 69.1781 762.353 67.5997 763.753 66.2017C765.197 64.8036 766.773 63.6085 768.487 62.6164C770.245 61.5791 772.185 60.7899 774.307 60.2488C776.43 59.7076 778.749 59.437 781.28 59.437C784.752 59.437 787.822 60.0458 790.477 61.2635C793.191 62.436 795.444 64.1948 797.246 66.5399C799.098 68.885 800.448 71.8389 801.308 75.4016C802.206 78.9191 802.592 83.0009 802.461 87.6457H785.882ZM858.28 42.1193C858.28 43.6075 858.01 45.0055 857.47 46.3134C856.93 47.6212 856.164 48.7712 855.172 49.7634C854.224 50.7104 853.094 51.4771 851.788 52.0634C850.475 52.6046 849.06 52.8751 847.521 52.8751C845.99 52.8751 844.546 52.6046 843.189 52.0634C841.883 51.4771 840.731 50.7104 839.739 49.7634C838.791 48.7712 838.047 47.6212 837.507 46.3134C836.967 45.0055 836.697 43.6075 836.697 42.1193C836.697 40.631 836.967 39.2329 837.507 37.9251C838.047 36.6173 838.791 35.4673 839.739 34.4751C840.731 33.4829 841.883 32.7163 843.189 32.1751C844.546 31.5888 845.99 31.2957 847.521 31.2957C849.06 31.2957 850.475 31.5888 851.788 32.1751C853.094 32.7163 854.224 33.4829 855.172 34.4751C856.164 35.4673 856.93 36.6173 857.47 37.9251C858.01 39.2329 858.28 40.631 858.28 42.1193ZM840.009 73.7784H820.593V60.9252H856.93V116.802H876.755V129.654H818.223V116.802H840.009V73.7784ZM936.57 129.654L911.195 95.2903V129.654H894.69V34.0692H911.195V90.0133L935.221 60.9252H955.855L927.978 92.246L958.16 129.654H936.57ZM1013.31 129.654L1012.9 120.658C1011.45 122.191 1009.94 123.612 1008.36 124.919C1006.79 126.182 1005.05 127.287 1003.15 128.234C1001.26 129.181 999.187 129.903 996.933 130.399C994.723 130.94 992.287 131.211 989.625 131.211C986.102 131.211 983.017 130.692 980.354 129.654C977.692 128.618 975.46 127.175 973.651 125.325C971.85 123.476 970.471 121.244 969.523 118.628C968.626 116.012 968.174 113.126 968.174 109.969C968.174 106.722 968.845 103.723 970.201 100.973C971.602 98.2216 973.695 95.854 976.496 93.8692C979.333 91.8851 982.856 90.3291 987.05 89.2018C991.288 88.0745 996.255 87.5108 1001.94 87.5108H1010.94V83.3838C1010.94 81.625 1010.69 80.0471 1010.19 78.6485C1009.7 77.2055 1008.89 75.9878 1007.76 74.9961C1006.68 74.0038 1005.26 73.2367 1003.49 72.6958C1001.73 72.1547 999.566 71.8841 996.999 71.8841C992.936 71.8841 988.924 72.3576 984.957 73.3045C981.025 74.2065 977.218 75.492 973.52 77.1603V63.9693C976.81 62.6615 980.602 61.5791 984.884 60.7223C989.216 59.8654 993.702 59.437 998.348 59.437C1003.45 59.437 1007.82 59.933 1011.48 60.9252C1015.13 61.8722 1018.13 63.3154 1020.48 65.2546C1022.87 67.1938 1024.63 69.6291 1025.76 72.5605C1026.88 75.4468 1027.45 78.8294 1027.45 82.7078V129.654H1013.31ZM1010.94 99.281H1000.86C998.056 99.281 995.693 99.5516 993.753 100.093C991.813 100.634 990.23 101.378 989.012 102.325C987.794 103.273 986.89 104.377 986.306 105.64C985.766 106.858 985.496 108.165 985.496 109.564C985.496 112.359 986.394 114.502 988.202 115.99C990.004 117.433 992.462 118.155 995.576 118.155C997.874 118.155 1000.27 117.321 1002.75 115.652C1005.23 113.983 1007.96 111.593 1010.94 108.481V99.281Z" fill="white"/>
</svg>
