<svg width="399" height="90" viewBox="0 0 399 90" fill="none" xmlns="http://www.w3.org/2000/svg">
<rect width="399" height="89.1383" rx="25" fill="#333333"/>
<path d="M55.1297 44.9639C55.1648 48.1706 54.7279 51.365 53.8329 54.4444C53.0584 57.1354 51.6882 59.6176 49.8238 61.707C47.8898 63.7861 45.4893 65.3756 42.8201 66.3444C39.5517 67.5028 36.0996 68.0559 32.6328 67.9764H21.2231V23.0868H34.5154C37.5702 23.0309 40.6142 23.4659 43.5311 24.3751C45.9703 25.1492 48.1816 26.5115 49.9702 28.3417C51.7715 30.2725 53.0952 32.5985 53.835 35.1332C54.7574 38.3266 55.1938 41.6406 55.1297 44.9639ZM46.063 45.5136C46.0863 43.3354 45.8907 41.1604 45.4794 39.0213C45.1572 37.2971 44.4816 35.6582 43.495 34.2079C42.5546 32.8807 41.2645 31.8404 39.7682 31.2026C37.925 30.4627 35.9487 30.1123 33.9636 30.1733H29.6616V60.9006H33.382C35.1317 61.0194 36.886 60.7483 38.5182 60.1068C40.1503 59.4652 41.6197 58.4692 42.8201 57.1907C44.9764 54.7189 46.0545 50.8265 46.0545 45.5136H46.063ZM61.4967 67.9764V23.0868H88.5332V30.2306H70.09V41.392H87.6758V48.3639H70.09V60.8326H88.5332V67.9764H61.4967ZM119.74 67.9764L111.092 51.4561L102.572 67.9764H92.3725L105.319 44.966L93.2214 23.0889H103.148L111.287 38.7157L119.152 23.0889H129.078L117.066 44.9639L130.496 67.9764H119.74Z" fill="white"/>
<path d="M166.995 37.4181C166.995 39.7546 166.605 41.9193 165.826 43.9122C165.048 45.8821 163.891 47.5887 162.356 49.0318C160.821 50.475 158.909 51.5974 156.618 52.3991C154.327 53.2009 151.67 53.6017 148.646 53.6017H144.351V68.033H135.83V23.1243H148.99C151.899 23.1243 154.465 23.445 156.687 24.0864C158.932 24.7048 160.81 25.6211 162.322 26.8352C163.857 28.0492 165.013 29.5496 165.792 31.3363C166.594 33.1002 166.995 35.1274 166.995 37.4181ZM158.13 38.0022C158.13 36.8111 157.935 35.7344 157.546 34.7724C157.179 33.7874 156.607 32.9513 155.828 32.2641C155.072 31.5769 154.11 31.05 152.941 30.6835C151.773 30.317 150.387 30.1337 148.784 30.1337H144.351V46.5923H149.059C150.525 46.5923 151.819 46.3975 152.941 46.0081C154.064 45.5958 155.003 45.0117 155.759 44.2558C156.538 43.4998 157.122 42.595 157.511 41.5413C157.924 40.4876 158.13 39.3079 158.13 38.0022Z" fill="#ABABAB"/>
<path d="M195.569 68.033L193.095 59.1681H177.426L174.884 68.033H166.5L179.797 23.1243H191.617L204.915 68.033H195.569ZM185.364 31.3707L179.454 52.2617H191.205L185.364 31.3707Z" fill="#ABABAB"/>
<path d="M237.337 37.4181C237.337 39.7546 236.947 41.9193 236.169 43.9122C235.39 45.8821 234.233 47.5887 232.698 49.0318C231.163 50.475 229.251 51.5974 226.96 52.3991C224.669 53.2009 222.012 53.6017 218.989 53.6017H214.694V68.033H206.172V23.1243H219.332C222.241 23.1243 224.807 23.445 227.029 24.0864C229.274 24.7048 231.152 25.6211 232.664 26.8352C234.199 28.0492 235.355 29.5496 236.134 31.3363C236.936 33.1002 237.337 35.1274 237.337 37.4181ZM228.472 38.0022C228.472 36.8111 228.277 35.7344 227.888 34.7724C227.521 33.7874 226.949 32.9513 226.17 32.2641C225.414 31.5769 224.452 31.05 223.284 30.6835C222.115 30.317 220.729 30.1337 219.126 30.1337H214.694V46.5923H219.401C220.867 46.5923 222.161 46.3975 223.284 46.0081C224.406 45.5958 225.345 45.0117 226.101 44.2558C226.88 43.4998 227.464 42.595 227.853 41.5413C228.266 40.4876 228.472 39.3079 228.472 38.0022Z" fill="#ABABAB"/>
<path d="M263.78 68.033L257.458 53.6017C256.863 52.2273 256.026 51.1965 254.95 50.5093C253.896 49.7992 252.648 49.4441 251.205 49.4441H249.59V68.033H241.137V23.1243H254.228C256.702 23.1243 258.947 23.3419 260.963 23.7771C262.979 24.1894 264.697 24.8881 266.117 25.8731C267.537 26.8581 268.625 28.1409 269.381 29.7214C270.16 31.302 270.549 33.2376 270.549 35.5283C270.549 37.1776 270.309 38.6436 269.828 39.9264C269.347 41.2092 268.671 42.3201 267.801 43.2593C266.93 44.1756 265.888 44.9201 264.674 45.4927C263.483 46.0654 262.177 46.4663 260.757 46.6953C261.856 46.9244 262.864 47.5543 263.78 48.5851C264.697 49.593 265.613 51.0591 266.529 52.9832L273.711 68.033H263.78ZM261.684 36.3529C261.684 34.1539 260.986 32.5733 259.588 31.6112C258.191 30.6491 256.095 30.1681 253.301 30.1681H249.59V42.847H253.026C254.331 42.847 255.511 42.7096 256.565 42.4347C257.641 42.1598 258.558 41.7475 259.314 41.1977C260.07 40.6479 260.654 39.9722 261.066 39.1705C261.478 38.3458 261.684 37.4066 261.684 36.3529Z" fill="#ABABAB"/>
<path d="M277.03 30.0307V23.1243H305.411V30.0307H295.515V61.0579H305.411V68.033H277.03V61.0579H286.925V30.0307H277.03Z" fill="#ABABAB"/>
<path d="M333.573 68.033L320.069 46.3174V68.033H311.479V23.1243H320.069V43.5686L333.504 23.1243H343.709L328.453 44.5306L344.499 68.033H333.573Z" fill="#ABABAB"/>
<path d="M371.424 68.033L368.95 59.1681H353.282L350.739 68.033H342.355L355.653 23.1243H367.473L380.77 68.033H371.424ZM361.219 31.3707L355.309 52.2617H367.06L361.219 31.3707Z" fill="#ABABAB"/>
<path d="M128.828 22.9596L128.308 23.8896L97.5302 78.9341L97.2263 79.4776L96.6036 79.4776L86.6819 79.4777L84.8765 79.4778L85.7542 77.9L118.751 18.5859L119.266 17.6596L120.193 18.1734L127.896 22.443L128.828 22.9596Z" fill="#43AA05"/>
<path d="M86.6826 78.4163L96.6043 78.4161L127.382 23.3716L119.679 19.1021L86.6826 78.4163ZM83.0718 80.5396L118.854 16.2173L130.275 22.5477L97.8498 80.5393L83.0718 80.5396Z" fill="#333333"/>
<path d="M129.49 10.8222L128.504 30.6816L112.801 21.9775L129.49 10.8222Z" fill="#43AA05"/>
</svg>
