<svg width="170" height="172" viewBox="0 0 170 172" fill="none" xmlns="http://www.w3.org/2000/svg">
<path d="M166.868 58.2582C168.434 65.3073 168.617 72.5693 167.409 79.6817C164.797 119.315 139.274 144.603 104.145 160.625C73.2364 174.73 41.1527 170.916 11.8897 152.838C9.29119 151.556 6.9399 149.869 4.93513 147.846C3.28968 146.614 2.18329 144.849 1.82876 142.891C-4.70078 128.062 7.77104 127.169 15.4365 130.111C36.3001 138.126 50.8736 128.391 65.9186 117.917L69.5736 113.299C77.7646 92.073 86.1796 70.913 94.015 49.5627C94.9902 45.9419 97.1697 42.7142 100.231 40.3574C103.293 38.0006 107.074 36.6396 111.015 36.476H112.081C133.339 27.1659 146.182 32.7139 160.13 47.4548C163.258 50.4922 165.568 54.1975 166.868 58.2582Z" fill="#DA161F"/>
<path d="M108.858 47.8489C108.349 47.5119 107.94 47.0566 107.669 46.5271C107.398 45.9972 107.276 45.4106 107.313 44.8228C107.35 44.2355 107.546 43.6668 107.882 43.1716C108.217 42.6761 108.681 42.2706 109.229 41.9936C117.69 40.2052 125.864 37.365 133.539 33.5472C140.208 29.2142 147.873 25.4228 148.538 15.4027C148.855 10.5208 136.723 0.456788 133.918 10.3597C132.172 16.4933 129.567 16.5372 126.647 13.5949C125.715 12.5315 125.235 11.1774 125.301 9.79697C125.366 8.41654 125.973 7.10883 127.002 6.1292C129.112 4.06864 131.662 2.45825 134.482 1.40559C137.302 0.352932 140.326 -0.117759 143.353 0.0249512C150.037 0.420192 158.035 6.6123 156.227 20.8117C155.161 26.2629 154.533 31.7828 154.349 37.324C153.975 45.464 156.041 53.5385 160.307 60.6139C160.328 61.0055 160.249 61.3963 160.075 61.7524C159.902 62.1085 159.64 62.4192 159.311 62.6578C158.982 62.8964 158.597 63.0556 158.189 63.1214C157.781 63.1873 157.362 63.1584 156.968 63.0365C154.975 60.6212 154.921 57.1812 149.032 55.19C143.138 54.191 137.061 54.9906 131.677 57.474C128.926 49.1152 126.167 46.612 117.25 47.9587C114.465 48.3485 111.631 48.3111 108.858 47.8489Z" fill="#86BB2F"/>
</svg>
